<?xml version="1.0" encoding="UTF-8" standalone="no"?>
<!-- Generator: Adobe Illustrator 27.2.0, SVG Export Plug-In . SVG Version: 6.00 Build 0)  -->

<svg
   version="1.1"
   id="Layer_1"
   x="0px"
   y="0px"
   viewBox="0 0 731.59 1040.59"
   style="enable-background: new 0 0 731.59 1040.59"
   xml:space="preserve"
   sodipodi:docname="logo.svg"
   inkscape:version="1.1.2 (0a00cf5339, 2022-02-04)"
   xmlns:inkscape="http://www.inkscape.org/namespaces/inkscape"
   xmlns:sodipodi="http://sodipodi.sourceforge.net/DTD/sodipodi-0.dtd"
   xmlns:xlink="http://www.w3.org/1999/xlink"
   xmlns="http://www.w3.org/2000/svg"
   xmlns:svg="http://www.w3.org/2000/svg"><defs
   id="defs898"><linearGradient
     inkscape:collect="always"
     id="linearGradient1398"><stop
       style="stop-color: #0d20f1; stop-opacity: 1"
       offset="0"
       id="stop1394" /><stop
       style="stop-color: #c4c3cf; stop-opacity: 1"
       offset="1"
       id="stop1396" /></linearGradient><linearGradient
     inkscape:collect="always"
     xlink:href="#linearGradient1398"
     id="linearGradient1400"
     x1="39.267895"
     y1="1060.7809"
     x2="704.44214"
     y2="53.570148"
     gradientUnits="userSpaceOnUse" /></defs><sodipodi:namedview
   id="namedview896"
   pagecolor="#ffffff"
   bordercolor="#999999"
   borderopacity="1"
   inkscape:pageshadow="0"
   inkscape:pageopacity="0"
   inkscape:pagecheckerboard="0"
   showgrid="false"
   inkscape:zoom="0.79954641"
   inkscape:cx="223.87694"
   inkscape:cy="520.295"
   inkscape:window-width="1920"
   inkscape:window-height="1020"
   inkscape:window-x="0"
   inkscape:window-y="26"
   inkscape:window-maximized="1"
   inkscape:current-layer="Layer_1" />
<g
   id="g893"
   transform="matrix(1,0,0,1,-31,-34)"
   style="fill:#c4c3cf;fill-opacity:1">
	<path
   d="M 505.9 137.5 h 1.2 c 6.8 -0.8 13.4 -3.4 19.8 -7.8 c 6.4 -4.4 11.2 -9.2 14.4 -14.4 c 2.8 2.8 6.4 5.6 10.8 8.4 c 4.4 2.8 9.2 4.2 14.4 4.2 c 3.2 0 6.2 -0.6 9 -1.8 c 8 -3.6 14 -9.7 18 -18.3 c 4 -8.6 6.8 -18.4 8.4 -29.5 c 1.6 -11 2.8 -21.9 3.6 -32.8 c 0 -0.8 0.1 -1.6 0.3 -2.4 c 0.2 -0.8 0.3 -1.6 0.3 -2.4 c 0 -2.8 -1.2 -4.8 -3.6 -6 c -2.4 -1.2 -4.6 -0.8 -6.6 1.2 l -10.8 9.6 c -1.2 1.2 -1.8 2.8 -1.8 4.8 v 2.4 c 0 2.8 -0.6 6.4 -1.8 10.8 l 0.6 -0.6 c -0.8 3.2 -2.1 6.3 -3.9 9.3 c -1.8 3 -4.3 4.9 -7.5 5.7 h -0.6 c -2 0 -5 -2 -9 -6 c -1.6 -1.6 -2.7 -3.7 -3.3 -6.3 c -0.6 -2.6 -0.9 -5.5 -0.9 -8.7 c 0 -0.8 0 -1.4 0 -1.8 c 0 -0.4 0 -1 0 -1.8 c 0 -0.8 0.1 -1.4 0.3 -1.8 c 0.2 -0.4 0.3 -0.8 0.3 -1.2 v -1.8 c 0 -0.4 0 -0.7 0 -0.9 c 0 -0.2 0 -0.5 0 -0.9 c 0 -2.8 -1.2 -4.7 -3.6 -5.7 c -2.4 -1 -4.6 -0.5 -6.6 1.5 l -10.8 9.6 c -0.8 12 -3.8 21.6 -9 28.9 c -1.6 2.4 -4.1 4.2 -7.5 5.4 c -3.4 1.2 -6.7 1.8 -9.9 1.8 c -0.4 0 -0.8 0.2 -1.2 0.6 c -4.8 -1.6 -7.8 -5 -9 -10.2 V 75 c 0 -6.4 0.6 -12.2 1.8 -17.4 c 0 -0.4 0.1 -0.9 0.3 -1.5 c 0.2 -0.6 0.3 -1.1 0.3 -1.5 c 0.4 -0.8 0.5 -1.3 0.3 -1.5 c -0.2 -0.2 -0.3 -0.5 -0.3 -0.9 c 0 -3.6 -1.6 -5.8 -4.8 -6.6 c -4.8 -0.4 -8.3 1.2 -10.5 4.8 c -2.2 3.6 -3.9 7 -5.1 10.2 l 0.6 -1.2 c -0.4 0.8 -0.7 1.5 -0.9 2.1 c -0.2 0.6 -0.3 1.3 -0.3 2.1 c 0 0.4 -0.1 0.6 -0.3 0.6 c -0.2 0 -0.3 0.2 -0.3 0.6 c -1.6 5.2 -3.2 10.7 -4.8 16.5 c -1.6 5.8 -2.4 12.1 -2.4 18.9 c 0 0.4 0 0.8 0 1.2 c 0 0.4 0 1 0 1.8 c -0.1 21.6 10.7 33.1 32.4 34.3 z"
   id="path885"
   style="fill:#c4c3cf;fill-opacity:1" />
	<path
   d="M 550.6 153.7 c -2.2 0.4 -3.9 1.4 -5.1 3 c -7.6 10 -15.3 19.8 -23.1 29.5 c -7.8 9.6 -15.7 19.4 -23.7 29.4 c -2.4 3.2 -2.2 6.2 0.6 9 l 40.3 37.9 c 1.6 1.6 3.4 2.3 5.4 2.1 c 2 -0.2 3.6 -1.1 4.8 -2.7 c 4 -4.8 6.9 -8.5 8.7 -11.1 c 1.8 -2.6 3.7 -5.1 5.7 -7.5 c 2 -2.4 5 -6 9 -10.8 c 4 -4.8 8 -9.6 12 -14.4 c 4 -4.8 8 -9.8 12 -15 c 2 -3.6 1.6 -6.8 -1.2 -9.6 l -39.7 -37.9 c -1.5 -1.7 -3.4 -2.3 -5.7 -1.9 z"
   id="path887"
   style="fill:#c4c3cf;fill-opacity:1" />
	<path
   d="M 760.1 267.3 l -39.7 -37.9 c -1.6 -1.6 -3.5 -2.2 -5.7 -1.8 c -2.2 0.4 -3.9 1.4 -5.1 3 c -7.6 10 -15.3 19.8 -23.1 29.4 c -7.8 9.6 -15.7 19.4 -23.7 29.4 c -2.4 3.2 -2.2 6.2 0.6 9 l 40.3 37.9 c 1.6 1.6 3.4 2.3 5.4 2.1 c 2 -0.2 3.6 -1.1 4.8 -2.7 c 4 -4.8 6.9 -8.5 8.7 -11.1 c 1.8 -2.6 3.7 -5.1 5.7 -7.5 c 2 -2.4 5 -6 9 -10.8 c 4 -4.8 8 -9.6 12 -14.4 c 4 -4.8 8 -9.8 12 -15 c 2 -3.6 1.6 -6.8 -1.2 -9.6 z"
   id="path889"
   style="fill:#c4c3cf;fill-opacity:1" />
	<path
   d="M 721.7 411 l -13.8 -43.3 c -0.8 -3.2 -2.6 -4.9 -5.4 -5.1 c -2.8 -0.2 -5.2 1.1 -7.2 3.9 L 650.2 432 c -1.2 2 -1.4 4 -0.6 6 c 2.4 6 4.5 12.1 6.3 18.3 c 1.8 6.2 3.7 12.7 5.7 19.5 c 1.6 5.6 2.9 10.5 3.9 14.7 c 1 4.2 1.5 7.9 1.5 11.1 l -32.5 16.2 c -23.3 11.2 -48.9 20.2 -76.9 27.1 c -5.2 1.6 -10.4 3 -15.6 4.2 c -5.2 1.2 -10.6 2.4 -16.2 3.6 c -9.6 2 -19.4 4 -29.4 6 c -10 2 -20.8 3 -32.5 3 c -12.8 0 -23.6 -2.6 -32.2 -7.8 c -8.6 -5.2 -12.9 -14.2 -12.9 -27 c 0 -2 0.1 -4.1 0.4 -6.3 c 3.9 -1.3 7.8 -2.6 11.7 -3.9 c 30.4 -8.8 58.9 -20.4 85.4 -34.9 c 22.4 -12.4 41 -27.1 55.6 -43.9 c 14.6 -16.8 27.7 -36.3 39.4 -58.3 c 4 -6.8 6 -14.4 6 -22.8 c 0 -13.6 -4.7 -24.8 -14.1 -33.7 c -9.4 -8.8 -20.5 -13.2 -33.4 -13.2 c -11.2 0 -22.2 2.1 -33.1 6.3 c -10.8 4.2 -19 9.1 -24.6 14.7 c -16.9 16.1 -34.5 33.5 -52.7 52.1 l 14.3 -22.6 l -12 -188.8 c -0.4 -3.6 -2.2 -5.8 -5.4 -6.6 c -3.2 -0.8 -5.8 0.4 -7.8 3.6 L 404 238.9 L 416.6 427 c 0.1 0.9 0.3 1.6 0.5 2.3 c -3.3 3.9 -6.4 7.7 -9.6 11.5 c -1.6 0.8 -4 1.6 -7.2 2.4 c -3.2 0.8 -7 1.8 -11.4 3 c -5.6 1.2 -12.7 2.9 -21.3 5.1 c -8.6 2.2 -17.1 4.4 -25.6 6.6 c -8.4 2.2 -15.2 4.1 -20.4 5.7 c -4.4 1.2 -8 2.4 -10.8 3.6 c -2.8 1.2 -5 2.2 -6.6 3 c -22.4 14.8 -38.3 31.9 -47.5 51.1 c -5.6 12 -11.4 24.3 -17.4 36.7 c -2.4 4.9 -4.8 10 -7.2 15.1 c -2.2 2.5 -4.5 5.5 -6.7 9 c -2.8 4.4 -5.6 9.6 -8.4 15.6 l -20.4 45.7 c -11.6 3.6 -23.4 7 -35.5 10.2 c -12 3.2 -23.7 6.8 -34.9 10.8 c -15.6 5.2 -29.1 10.9 -40.3 17.1 c -11.2 6.2 -21.2 15.9 -30.1 29.1 c -6.8 16 -12.6 34.3 -17.4 54.7 c -5 20.8 -7.4 42.2 -7.4 64.6 c 0.4 22.5 1.9 43.7 4.5 63.7 c 2.6 20 6.1 39.5 10.5 58.3 c 4.4 18.4 8.5 37.4 12.3 56.8 c 3.8 19.4 7.1 39.4 9.9 59.8 c 0.4 4 2.5 6 6.3 6 c 3.8 0 6.3 -1.6 7.5 -4.8 c 3.6 -12.4 6.2 -25 7.8 -37.6 c 1.6 -12.6 2.4 -25.7 2.4 -39.4 c 0 -6.8 -0.2 -13.7 -0.6 -20.7 c -0.4 -7 -1 -13.7 -1.8 -20.1 l -23.9 -152 c -0.4 -1.2 -0.6 -2.4 -0.6 -3.6 c 0 -0.8 0 -1.5 0 -2.1 c 0 -0.6 0 -1.1 0 -1.5 c 0 -6 1.8 -10.8 5.4 -14.4 c 10.4 -9.2 22.7 -16.8 37 -22.8 c 14.2 -6 29.4 -10.6 45.4 -13.8 c 26.4 -5.6 51.4 -14.5 74.8 -26.8 c 23.4 -12.2 42.8 -26.8 58 -43.6 c 9.2 -10.4 16.5 -22.3 21.9 -35.8 c 5.4 -13.4 9.9 -28.4 13.5 -44.8 c 2 -11.6 -0.2 -19.8 -6.6 -24.6 c -6.4 -4.8 -16.2 -7.2 -29.4 -7.2 c -1.6 0 -2.7 0 -3.3 0 c -0.1 0 -0.2 0 -0.2 0 c 11.4 -7.9 24.4 -12.9 39 -15 c 18.4 -2.8 36.8 -6.4 55 -10.8 c 0.8 -0.2 1.7 -0.4 2.5 -0.6 c -2.1 5.5 -4 11.1 -5.8 16.9 c -1.2 4.8 -2.5 11 -3.9 18.6 c -1.4 7.6 -2.1 14.4 -2.1 20.4 c 0 24 7.2 40.1 21.6 48.1 c 14.4 8 33.7 12 57.7 12 c 16.4 0 33.9 -1.8 52.3 -5.4 c 7.2 -1.6 14.4 -3.2 21.6 -4.8 c 7.2 -1.6 14.4 -3.6 21.6 -6 c 29.3 -9.2 56.7 -21.2 82.3 -36.1 c 25.6 -14.8 47.5 -32.7 65.5 -53.5 c 10 -11.6 18.7 -26.6 26.1 -45.1 c 7.4 -18.4 11.1 -36.3 11.1 -53.5 c 0 -6.4 -0.4 -12.2 -1.2 -17.4 c -0.6 -5.3 -1.8 -10.5 -3.4 -15.7 z m -242.6 -1.5 c 8.2 -7.4 17.1 -13.7 26.8 -18.9 c 3.6 -2 7.6 -3 12 -3 c 5.2 0 10.1 1.2 14.7 3.6 c 4.6 2.4 7.7 5 9.3 7.8 c 2 3.2 2.8 5 2.4 5.4 c -13.2 6.4 -27.3 11.8 -42.1 16.2 c -14.8 4.4 -30.5 8.2 -46.9 11.4 c 7.7 -7.6 15.6 -15.1 23.8 -22.5 z"
   id="path891"
   style="fill:#c4c3cf;fill-opacity:1" />
</g>
</svg>
